<svg xmlns="http://www.w3.org/2000/svg" xmlns:xlink="http://www.w3.org/1999/xlink" width="1000" height="683.471" viewBox="0 0 345.833 236.367" version="1.2"><defs><symbol overflow="visible" id="a"><path d="M3.984-1.688c0-1-.828-1.859-1.875-1.859-1.046 0-1.875.86-1.875 1.86 0 .984.86 1.765 1.875 1.765 1.032 0 1.875-.781 1.875-1.766zm-.718-.078c0 .36-.016.797-.235 1.141-.219.313-.578.453-.922.453-.437 0-.765-.203-.937-.484-.203-.328-.219-.719-.219-1.11 0-.296 0-.78.235-1.125.218-.28.546-.437.921-.437.407 0 .75.203.938.484.219.328.219.766.219 1.078zm0 0"/></symbol><symbol overflow="visible" id="b"><path d="M4.406-1.719c0-1-.797-1.781-1.765-1.781-.313 0-.766.078-1.172.484V-3.5L.28-3.422v.266c.563 0 .594.047.594.375V.922c0 .36-.094.36-.594.36v.265c.344-.031.688-.031.906-.031.235 0 .563 0 .907.03v-.265c-.516 0-.61 0-.61-.36V-.39c.375.407.782.47 1.032.47 1.015 0 1.89-.782 1.89-1.798zm-.703 0c0 .922-.578 1.578-1.219 1.578-.28 0-.64-.125-.906-.515-.094-.14-.094-.14-.094-.297v-1.688a1.253 1.253 0 011.079-.625c.624 0 1.14.688 1.14 1.547zm0 0"/></symbol><symbol overflow="visible" id="c"><path d="M3.5-.953c0-.031-.016-.11-.125-.11-.078 0-.094.047-.11.094a1.155 1.155 0 01-1.124.797 1.11 1.11 0 01-.954-.531c-.234-.36-.234-.875-.234-1.11h2.328c.172 0 .219 0 .219-.187 0-.703-.375-1.547-1.5-1.547-.984 0-1.766.813-1.766 1.813 0 1.015.86 1.812 1.86 1.812C3.109.078 3.5-.766 3.5-.953zm-.531-1.063H.953C1.031-3.14 1.703-3.328 2-3.328c.922 0 .953 1.125.969 1.312zm0 0"/></symbol><symbol overflow="visible" id="d"><path d="M4.469 0v-.266c-.516 0-.61 0-.61-.359v-1.781c0-.672-.296-1.094-1.125-1.094-.796 0-1.156.563-1.25.75v-.75l-1.156.078v.266c.531 0 .61.047.61.437v2.094c0 .36-.11.36-.61.36V0c.344-.031.688-.031.906-.031.235 0 .563 0 .907.031v-.266c-.516 0-.61 0-.61-.359v-1.438c0-.828.64-1.218 1.125-1.218s.61.344.61.844v1.812c0 .36-.094.36-.61.36V0c.344-.031.688-.031.906-.031.235 0 .563 0 .907.031zm0 0"/></symbol><symbol overflow="visible" id="e"><path d="M5.266-3.938c0-.78-.829-1.5-1.985-1.5H.36v.266h.188c.61 0 .625.094.625.39V-.64c0 .297-.016.375-.625.375H.359V0l1.172-.031L2.703 0v-.266h-.172c-.61 0-.625-.078-.625-.375v-1.843h1.438c.984 0 1.922-.625 1.922-1.454zm-.813 0c0 .344 0 1.22-1.375 1.22H1.875v-2.126c0-.265.016-.328.39-.328h.813c1.375 0 1.375.875 1.375 1.234zm0 0"/></symbol><symbol overflow="visible" id="f"><path d="M7.344 0v-.266h-.172c-.625 0-.64-.078-.64-.375v-4.14c0-.297.015-.39.64-.39h.172v-.266H6c-.219 0-.234.03-.297.171L3.86-.75l-1.843-4.5c-.063-.156-.063-.188-.297-.188H.39v.266h.171c.61 0 .625.094.625.39v3.938c0 .203 0 .578-.796.578V0c.359-.031.734-.031.937-.031.203 0 .578 0 .938.031v-.266c-.797 0-.797-.375-.797-.578v-4.234l2 4.89c.047.094.094.188.203.188.094 0 .14-.094.172-.188L5.875-5.14h.016v4.5c0 .297-.016.375-.641.375h-.172V0l1.14-.031zm0 0"/></symbol><symbol overflow="visible" id="g"><path d="M5.969-2.672c0-1.531-1.157-2.765-2.578-2.765H.359v.265h.188c.61 0 .625.094.625.39V-.64c0 .297-.016.375-.625.375H.359V0h3.032c1.421 0 2.578-1.188 2.578-2.672zm-.797 0c0 .406 0 1.188-.5 1.766-.281.328-.797.64-1.5.64h-.906c-.375 0-.391-.046-.391-.328v-4.25c0-.265.016-.328.39-.328h.907c.625 0 1.14.25 1.484.656.516.61.516 1.454.516 1.844zm0 0"/></symbol><symbol overflow="visible" id="h"><path d="M4.094-3.188c0-.14-.094-.406-.453-.406-.141 0-.516.031-.875.36a1.585 1.585 0 00-.891-.266c-.781 0-1.36.547-1.36 1.156 0 .375.204.656.36.813a1.027 1.027 0 00-.234.656.88.88 0 00.343.703C.563-.062.234.25.234.61c0 .579.829 1.016 1.875 1.016 1 0 1.875-.406 1.875-1.031 0-.422-.265-.766-.53-.89-.47-.25-.86-.25-1.626-.25h-.453c-.25-.032-.438-.235-.438-.532 0-.188.047-.266.094-.328.344.203.64.234.844.234.781 0 1.36-.547 1.36-1.172 0-.297-.126-.547-.329-.765.11-.094.375-.25.766-.266-.031.031-.063.063-.063.188 0 .156.094.25.235.25.11 0 .25-.063.25-.25zm-1.485.844c0 .297-.046.5-.156.672-.172.219-.437.266-.578.266-.734 0-.734-.75-.734-.938 0-.281.03-.5.156-.656a.717.717 0 01.578-.281c.734 0 .734.765.734.937zM3.5.61c0 .422-.61.797-1.39.797-.797 0-1.407-.375-1.407-.797 0-.171.125-.64.781-.64h.766c.219 0 1.25 0 1.25.64zm0 0"/></symbol><symbol overflow="visible" id="i"><path d="M3.047-3c0-.281-.25-.5-.594-.5-.515 0-.875.375-1.031.828h-.016V-3.5l-1.125.078v.266c.531 0 .594.047.594.437v2.094c0 .36-.094.36-.594.36V0c.313-.031.75-.031.938-.031.468 0 .484 0 1 .031v-.266h-.156c-.579 0-.594-.078-.594-.375v-1.171c0-.594.234-1.454 1-1.47-.047.032-.125.095-.125.282 0 .234.187.36.36.36.187 0 .343-.141.343-.36zm0 0"/></symbol><symbol overflow="visible" id="j"><path d="M4.469 0v-.266c-.547 0-.61-.046-.61-.437V-3.5l-1.203.078v.266c.547 0 .61.047.61.437v1.39C3.266-.64 2.844-.14 2.25-.14c-.688 0-.719-.343-.719-.734V-3.5l-1.203.078v.266c.61 0 .61.015.61.734v1.188c0 .578 0 1.312 1.265 1.312.75 0 1.031-.578 1.078-.64v.64zm0 0"/></symbol><symbol overflow="visible" id="k"><path d="M3.047-1.031c0-.375-.235-.938-1.172-1.11a10.121 10.121 0 00-.547-.093c-.25-.063-.625-.22-.625-.547 0-.235.172-.563.938-.563.89 0 .921.64.937.875.016.063.063.078.125.078.125 0 .125-.046.125-.203v-.75c0-.125 0-.203-.094-.203-.046 0-.062 0-.203.125-.015.016-.078.078-.11.078 0 0-.015 0-.062-.031-.125-.078-.359-.172-.718-.172-1.11 0-1.36.61-1.36.985 0 .406.297.624.313.656.328.234.5.265 1.031.36.375.077.984.187.984.734 0 .296-.203.671-.937.671C.875-.14.64-.766.547-1.187.516-1.282.5-1.329.407-1.329c-.126 0-.126.062-.126.219v.984c0 .125 0 .203.094.203.047 0 .063 0 .203-.156.047-.047.125-.14.172-.188.36.329.734.344.938.344 1.015 0 1.359-.578 1.359-1.11zm0 0"/></symbol><symbol overflow="visible" id="l"><path d="M4.406 0v-.266c-.547 0-.61-.046-.61-.437v-4.813l-1.187.079v.265c.547 0 .61.063.61.453v1.672A1.441 1.441 0 002.156-3.5c-1 0-1.875.766-1.875 1.797 0 .969.797 1.781 1.797 1.781.469 0 .86-.219 1.125-.5v.5zM3.203-.984c0 .14 0 .171-.125.328a1.174 1.174 0 01-.969.515c-.359 0-.671-.187-.875-.484-.203-.313-.25-.703-.25-1.078 0-.453.079-.781.25-1.063.204-.296.563-.515.954-.515.39 0 .765.187 1.015.594zm0 0"/></symbol><symbol overflow="visible" id="m"><path d="M4.094-.719v-.437h-.25v.437c0 .328-.125.453-.281.453-.297 0-.297-.359-.297-.453v-1.656c0-.781-.766-1.172-1.485-1.172-.656 0-1.25.25-1.25.781a.36.36 0 00.375.375.361.361 0 00.375-.375c0-.187-.125-.312-.297-.359.297-.203.72-.203.782-.203.453 0 .89.312.89.969v.25c-.469.015-1 .046-1.547.265-.703.313-.843.766-.843 1.032 0 .687.812.89 1.359.89a1.23 1.23 0 001.11-.64c.046.296.25.609.593.609.078 0 .766-.031.766-.766zm-1.438-.406c0 .781-.656.984-.969.984-.421 0-.765-.28-.765-.656 0-.531.5-1.078 1.734-1.11zm0 0"/></symbol><symbol overflow="visible" id="n"><path d="M2.813-1v-.438h-.25v.422c0 .547-.25.844-.547.844-.532 0-.532-.672-.532-.812v-2.188h1.188v-.25H1.484V-4.89h-.25C1.22-4.17.906-3.406.156-3.39v.22h.719V-1c0 .938.719 1.078 1.078 1.078.531 0 .86-.469.86-1.078zm0 0"/></symbol><symbol overflow="visible" id="aj"><path d="M2.063 0v-.266c-.516 0-.547-.03-.547-.343V-3.5l-1.157.078v.266c.5 0 .579.047.579.437v2.094c0 .36-.094.36-.61.36V0c.313-.031.766-.031.875-.031.11 0 .594 0 .86.031zm-.454-4.781a.44.44 0 00-.437-.453.45.45 0 00-.438.453c0 .218.188.437.438.437s.437-.218.437-.437zm0 0"/></symbol><symbol overflow="visible" id="ak"><path d="M4.406-1.719c0-1-.812-1.781-1.797-1.781-.625 0-1.015.328-1.14.484v-2.5L.28-5.437v.265c.531 0 .594.063.594.453V0h.25l.297-.5c.187.281.562.578 1.094.578 1.015 0 1.89-.781 1.89-1.797zm-.703 0c0 .172 0 .735-.297 1.11a1.18 1.18 0 01-.922.468c-.375 0-.687-.203-.906-.515-.094-.14-.094-.156-.094-.313v-1.547c0-.156 0-.171.125-.312.235-.297.61-.453.954-.453.421 0 .734.25.89.484.14.219.25.485.25 1.078zm0 0"/></symbol><symbol overflow="visible" id="o"><path d="M1.516 1.5v-.25H.937v-5.484h.579v-.25H.703V1.5zm0 0"/></symbol><symbol overflow="visible" id="u"><path d="M1.14-.313a.313.313 0 00-.312-.312.313.313 0 00-.312.313c0 .171.14.312.312.312s.313-.14.313-.313zm1.173 0A.313.313 0 002-.625a.313.313 0 00-.313.313.313.313 0 00.625 0zm1.171 0a.313.313 0 00-.312-.312.313.313 0 00-.313.313.313.313 0 00.625 0zm0 0"/></symbol><symbol overflow="visible" id="v"><path d="M.953 1.5v-5.984H.125v.25h.578V1.25H.125v.25zm0 0"/></symbol><symbol overflow="visible" id="z"><path d="M3.078 0v-.188c-.328 0-.422-.015-.562-.187l-.797-1.031c.172-.219.406-.516.547-.672.187-.219.421-.297.703-.313v-.187a5.04 5.04 0 01-.485.031c-.187 0-.5-.015-.578-.031v.187c.125.016.172.094.172.188S2.016-2.031 2-2l-.375.469-.469-.594c-.047-.063-.047-.078-.047-.11 0-.093.079-.14.204-.156v-.187l-.641.031c-.125 0-.406-.015-.578-.031v.187c.422 0 .437.016.719.375l.578.766c-.282.36-.282.36-.563.703a.938.938 0 01-.75.36V0c.156-.016.328-.016.484-.016L1.141 0v-.188C1-.203.969-.28.969-.374c0-.125.172-.328.531-.75l.453.594c.047.062.125.156.125.203 0 .047-.062.14-.219.14V0L2.5-.016c.172 0 .406 0 .578.016zm0 0"/></symbol><symbol overflow="visible" id="A"><path d="M1.219 0c0-.39-.157-.625-.39-.625a.303.303 0 00-.313.313c0 .156.093.312.312.312a.318.318 0 00.235-.094c.015.469-.157.828-.407 1.11-.047.046-.047.046-.047.078 0 .031.032.062.063.062.062 0 .547-.468.547-1.156zm0 0"/></symbol><symbol overflow="visible" id="B"><path d="M3.031-2.39v-.188c-.14.015-.312.031-.453.031l-.515-.031v.187c.187.016.28.11.28.266 0 .047 0 .063-.03.14l-.61 1.47-.656-1.61c-.031-.063-.031-.078-.031-.11 0-.156.218-.156.328-.156v-.187l-.657.031c-.156 0-.39-.015-.578-.031v.187c.297 0 .407 0 .485.22L1.5 0l-.156.36c-.125.328-.297.734-.688.734-.031 0-.156 0-.281-.11C.563.97.609.828.609.734.61.578.5.484.36.484.25.484.11.563.11.734c0 .282.25.485.547.485.375 0 .625-.328.766-.672L2.484-2a.558.558 0 01.547-.39zm0 0"/></symbol><symbol overflow="visible" id="C"><path d="M2.39-1.11h-.14c-.063.704-.188.954-.875.954H.672l1.656-2.235c.047-.062.047-.078.047-.109 0-.078-.047-.078-.156-.078H.313L.25-1.61h.156c.031-.61.14-.829.797-.829h.688L.219-.188c-.047.063-.047.079-.047.11C.172 0 .203 0 .328 0h1.969zm0 0"/></symbol><symbol overflow="visible" id="D"><path d="M2.484-.703c0-.063-.062-.078-.078-.078-.062 0-.078.031-.078.078-.219.625-.75.625-.812.625-.297 0-.532-.188-.672-.406-.188-.282-.188-.672-.188-.891h1.672c.125 0 .156 0 .156-.125 0-.594-.328-1.172-1.078-1.172-.687 0-1.234.61-1.234 1.36C.172-.516.797.063 1.484.063c.72 0 1-.657 1-.766zM2.078-1.5H.672c.031-.89.531-1.047.734-1.047.61 0 .672.813.672 1.047zm0 0"/></symbol><symbol overflow="visible" id="E"><path d="M1.516 0v-.188c-.391 0-.454 0-.454-.265v-3.688l-.859.063v.187c.406 0 .453.047.453.329v3.109c0 .266-.062.266-.453.266V0L.86-.016zm0 0"/></symbol><symbol overflow="visible" id="F"><path d="M2.484-.703c0-.063-.062-.063-.078-.063-.062 0-.078.016-.078.063-.172.547-.562.625-.781.625-.328 0-.844-.266-.844-1.219 0-.984.485-1.234.797-1.234.063 0 .438.015.64.234-.25.016-.28.188-.28.266 0 .156.109.281.28.281.157 0 .266-.11.266-.281 0-.406-.453-.64-.906-.64-.75 0-1.297.64-1.297 1.374 0 .766.594 1.36 1.281 1.36.797 0 1-.72 1-.766zm0 0"/></symbol><symbol overflow="visible" id="G"><path d="M1.984-.734v-.344h-.156v.328c0 .438-.172.672-.39.672-.407 0-.407-.547-.407-.656v-1.657h.86v-.187h-.86v-1.094h-.14C.875-3.187.703-2.547.109-2.516v.125h.516v1.657c0 .734.547.796.766.796.421 0 .593-.421.593-.796zm0 0"/></symbol><symbol overflow="visible" id="H"><path d="M2.172-2.281c0-.188-.188-.36-.438-.36-.437 0-.656.407-.734.657v-.657l-.828.063v.187c.406 0 .453.047.453.344v1.594c0 .266-.063.266-.453.266V0l.672-.016c.25 0 .515 0 .765.016v-.188h-.125c-.453 0-.453-.062-.453-.28v-.923c0-.578.25-1.109.703-1.109h.063c-.016 0-.14.078-.14.234 0 .172.124.25.265.25.094 0 .25-.062.25-.265zm0 0"/></symbol><symbol overflow="visible" id="I"><path d="M2.813-1.281c0-.766-.594-1.39-1.313-1.39-.75 0-1.328.655-1.328 1.39C.172-.5.782.062 1.484.062A1.33 1.33 0 002.813-1.28zm-.5-.047c0 .219 0 .547-.126.797-.14.281-.39.453-.687.453a.768.768 0 01-.688-.406C.656-.75.656-1.11.656-1.328c0-.234 0-.547.156-.813a.78.78 0 01.672-.406c.266 0 .516.14.672.39.156.266.156.61.156.829zm0 0"/></symbol><symbol overflow="visible" id="J"><path d="M3.188 0v-.188c-.297 0-.454 0-.454-.171V-1.5c0-.516 0-.703-.187-.922-.094-.094-.281-.219-.625-.219-.438 0-.719.266-.89.625v-.625l-.845.063v.187c.422 0 .47.047.47.344v1.594c0 .266-.063.266-.47.266V0L.86-.016 1.531 0v-.188c-.39 0-.468 0-.468-.265v-1.094c0-.625.437-.953.812-.953.375 0 .438.313.438.656v1.39c0 .267-.063.267-.47.267V0l.688-.016zm0 0"/></symbol><symbol overflow="visible" id="K"><path d="M2.156-.766c0-.312-.187-.5-.265-.562-.188-.188-.422-.234-.672-.297-.328-.063-.735-.14-.735-.484 0-.204.157-.454.672-.454.657 0 .688.547.688.72.015.062.078.062.078.062.078 0 .078-.032.078-.14v-.61c0-.094 0-.14-.063-.14-.03 0-.046 0-.125.062-.015.03-.078.078-.093.109-.235-.172-.485-.172-.563-.172-.734 0-.953.39-.953.735 0 .203.094.375.25.5.188.156.36.203.781.28.141.016.625.126.625.548 0 .312-.203.546-.671.546-.5 0-.72-.343-.829-.843-.015-.078-.03-.11-.078-.11-.078 0-.078.047-.078.157v.78c0 .11 0 .142.063.142.03 0 .03 0 .14-.11.016-.015.016-.031.125-.14.266.25.531.25.656.25.688 0 .97-.391.97-.829zm0 0"/></symbol><symbol overflow="visible" id="L"><path d="M1.469 0v-.188c-.39 0-.407-.03-.407-.265v-2.188l-.843.063v.187c.39 0 .437.032.437.329v1.609c0 .266-.062.266-.453.266V0L.86-.016c.204 0 .407.016.61.016zM1.14-3.61a.313.313 0 00-.313-.312.327.327 0 00-.328.313c0 .171.14.328.328.328.203 0 .313-.172.313-.328zm0 0"/></symbol><symbol overflow="visible" id="M"><path d="M3.11-1.297c0-.75-.579-1.344-1.25-1.344-.47 0-.72.266-.829.391v-.39l-.86.062v.187c.423 0 .454.032.454.297V.703C.625.97.562.97.172.97v.187l.656-.015.688.015V.97c-.407 0-.47 0-.47-.266V-.359c.032.109.282.421.735.421.703 0 1.328-.578 1.328-1.359zm-.5 0c0 .734-.407 1.234-.86 1.234-.234 0-.453-.124-.625-.374-.078-.126-.078-.126-.078-.25v-1.329a.902.902 0 01.766-.468c.437 0 .796.515.796 1.187zm0 0"/></symbol><symbol overflow="visible" id="N"><path d="M4.86 0v-.188c-.313 0-.47 0-.47-.171V-1.5c0-.516 0-.703-.187-.922-.078-.094-.281-.219-.625-.219-.5 0-.765.36-.875.594-.078-.531-.515-.594-.781-.594-.438 0-.719.266-.89.625v-.625l-.845.063v.187c.422 0 .47.047.47.344v1.594c0 .266-.063.266-.47.266V0L.86-.016 1.531 0v-.188c-.39 0-.468 0-.468-.265v-1.094c0-.625.437-.953.812-.953.375 0 .438.313.438.656v1.39c0 .267-.063.267-.47.267V0l.688-.016.656.016v-.188c-.39 0-.453 0-.453-.265v-1.094c0-.625.422-.953.797-.953.375 0 .438.313.438.656v1.39c0 .267-.063.267-.453.267V0l.671-.016zm0 0"/></symbol><symbol overflow="visible" id="O"><path d="M3.188 0v-.188c-.407 0-.454-.046-.454-.328V-2.64l-.89.063v.187c.422 0 .468.047.468.344v1.063c0 .515-.28.921-.718.921-.5 0-.532-.28-.532-.593v-1.985l-.875.063v.187c.47 0 .47.016.47.547v.907c0 .453 0 1 .905 1 .329 0 .594-.157.766-.532v.531zm0 0"/></symbol><symbol overflow="visible" id="p"><path d="M2.75-1.906c0-.485-.031-.953-.25-1.407a1.084 1.084 0 00-1-.656c-.36 0-.797.156-1.047.703-.187.407-.219.875-.219 1.36C.234-1.47.25-.922.5-.47c.266.485.688.594.984.594.329 0 .782-.125 1.047-.688.188-.406.219-.875.219-1.343zM1.484 0C1.25 0 .906-.156.797-.719c-.063-.36-.063-.906-.063-1.265 0-.375 0-.766.047-1.094.11-.719.563-.766.703-.766.204 0 .594.11.704.703.062.329.062.782.062 1.157 0 .453 0 .859-.063 1.234-.093.578-.437.75-.703.75zm0 0"/></symbol><symbol overflow="visible" id="r"><path d="M1.75-3.813c0-.156 0-.156-.125-.156-.375.375-.906.375-1.094.375v.188c.125 0 .469 0 .781-.156V-.47c0 .219-.015.281-.546.281H.562V0c.22-.016.735-.016.97-.016.234 0 .765 0 .968.016v-.188h-.188c-.546 0-.562-.062-.562-.28zm0 0"/></symbol><symbol overflow="visible" id="s"><path d="M.766-.453l.625-.625c.937-.813 1.296-1.14 1.296-1.734 0-.688-.546-1.157-1.265-1.157A1.1 1.1 0 00.297-2.89c0 .329.297.329.312.329.11 0 .313-.063.313-.313a.303.303 0 00-.313-.313H.531c.14-.374.453-.609.813-.609.531 0 .797.485.797.985 0 .468-.297.937-.625 1.312L.359-.219C.297-.156.297-.14.297 0h2.219l.171-1.031h-.156c-.031.172-.078.437-.125.531-.047.047-.437.047-.578.047zm0 0"/></symbol><symbol overflow="visible" id="t"><path d="M1.734-2.094c.485-.172.829-.594.829-1.062 0-.485-.516-.813-1.094-.813-.61 0-1.063.36-1.063.813 0 .187.14.297.313.297.187 0 .297-.125.297-.297 0-.297-.282-.297-.36-.297.172-.297.578-.375.781-.375.25 0 .579.14.579.672 0 .078-.016.422-.172.672-.172.296-.375.312-.532.312-.046.016-.187.016-.218.016-.063.015-.094.015-.094.078 0 .062.031.062.14.062h.266c.485 0 .703.407.703 1 0 .813-.406.985-.671.985-.25 0-.704-.11-.907-.453a.33.33 0 00.39-.329c0-.218-.155-.343-.343-.343a.323.323 0 00-.328.343c0 .547.563.938 1.203.938.734 0 1.281-.531 1.281-1.14 0-.5-.375-.954-1-1.079zm0 0"/></symbol><symbol overflow="visible" id="q"><path d="M1.219 0c0-.406-.157-.625-.39-.625-.204 0-.313.14-.313.313 0 .156.109.312.312.312a.297.297 0 00.203-.078l.032-.016c.015 0 .015 0 .015.094 0 .438-.203.797-.406.984-.063.079-.063.079-.063.11s.032.062.063.062c.062 0 .547-.468.547-1.156zm0 0"/></symbol><symbol overflow="visible" id="w"><path d="M3.203-3.547c-.078.078-.281.235-.281.344 0 .062.062.125.125.125.047 0 .078-.047.11-.078.077-.094.202-.266.468-.39.047-.017.11-.048.11-.126 0-.062-.047-.094-.094-.125a.561.561 0 01-.235-.328c-.015-.063-.047-.14-.125-.14s-.125.077-.125.124c0 .032.063.22.156.344H1.297c-.11 0-.203 0-.203.125s.093.125.203.125zm0 0"/></symbol><symbol overflow="visible" id="x"><path d="M.953-.469c-.062.235-.062.281-.547.281-.094 0-.156 0-.156.126C.25 0 .297 0 .406 0h2.14c.938 0 1.642-.703 1.642-1.297 0-.422-.344-.766-.922-.828.625-.125 1.25-.563 1.25-1.125 0-.438-.391-.828-1.11-.828H1.391c-.11 0-.172 0-.172.125 0 .062.062.062.172.062.015 0 .125 0 .234.016.094 0 .156.016.156.094 0 .015-.015.031-.031.11zm.906-1.719l.36-1.484c.062-.203.078-.219.328-.219h.765c.532 0 .657.344.657.61 0 .531-.516 1.094-1.235 1.094zm-.265 2h-.14c-.063-.015-.079-.015-.079-.062 0-.016 0-.031.031-.14l.422-1.657h1.125c.563 0 .688.438.688.688 0 .593-.532 1.171-1.235 1.171zm0 0"/></symbol><symbol overflow="visible" id="y"><path d="M4.219-1.39c.015-.032.031-.079.031-.079 0-.015 0-.078-.063-.078-.062 0-.062.047-.078.078-.39.89-.609 1.282-1.625 1.282H1.47C1.422-.204 1.39-.204 1.39-.25c0-.016 0-.031.03-.14l.407-1.626h.594c.515 0 .515.125.515.266 0 .047 0 .125-.046.297-.016.031-.016.047-.016.062 0 .032.016.079.078.079.047 0 .063-.032.078-.125l.344-1.391c0-.047-.031-.078-.063-.078-.062 0-.078.047-.093.11-.125.452-.235.593-.781.593h-.563l.36-1.438c.062-.203.062-.234.328-.234h.843c.719 0 .906.172.906.656 0 .156 0 .156-.03.328v.11c0 .031.015.062.062.062.078 0 .078-.031.093-.14l.11-1.032c.031-.171 0-.171-.156-.171H1.375c-.11 0-.172 0-.172.125 0 .062.047.062.156.062.235 0 .391 0 .391.11 0 .015 0 .03-.031.14L.937-.469C.875-.234.86-.188.391-.188c-.094 0-.157 0-.157.11C.234 0 .281 0 .391 0h3.093c.141 0 .157 0 .188-.094zm0 0"/></symbol><symbol overflow="visible" id="P"><path d="M4.953-1.844c0-1-.656-1.812-1.484-2.015l-1.266-.297a1.308 1.308 0 01-1.015-1.266A1.3 1.3 0 012.5-6.734c1.656 0 1.875 1.64 1.938 2.078.015.062.015.125.125.125.125 0 .125-.047.125-.235v-2c0-.171 0-.234-.11-.234-.062 0-.078 0-.14.125l-.36.563C3.781-6.595 3.375-7 2.5-7 1.39-7 .562-6.125.562-5.078A1.9 1.9 0 001.86-3.266c.11.047.61.172 1.313.329.265.078.562.14.844.515.203.25.312.578.312.906 0 .704-.5 1.422-1.344 1.422-.28 0-1.03-.047-1.562-.531-.578-.531-.61-1.172-.61-1.531C.797-2.25.72-2.25.688-2.25c-.125 0-.125.063-.125.25v1.984c0 .172 0 .235.11.235.062 0 .078-.016.14-.125 0 0 .032-.047.36-.578.312.343.937.703 1.828.703 1.156 0 1.953-.969 1.953-2.063zm0 0"/></symbol><symbol overflow="visible" id="Q"><path d="M4.125-1.188c0-.093-.078-.109-.125-.109-.094 0-.11.047-.14.14C3.515-.14 2.624-.14 2.53-.14c-.5 0-.906-.296-1.125-.671-.297-.47-.297-1.125-.297-1.485h2.766c.219 0 .25 0 .25-.203 0-.984-.531-1.953-1.781-1.953C1.188-4.453.28-3.422.28-2.187.281-.86 1.328.108 2.47.108 3.672.11 4.125-1 4.125-1.187zM3.469-2.5h-2.36C1.172-3.984 2-4.234 2.344-4.234c1.031 0 1.125 1.343 1.125 1.734zm0 0"/></symbol><symbol overflow="visible" id="R"><path d="M3.625-3.781c0-.328-.313-.61-.75-.61-.719 0-1.078.657-1.219 1.094V-4.39l-1.375.11v.312c.688 0 .766.063.766.547V-.75c0 .438-.11.438-.766.438V0l1.125-.031c.407 0 .875 0 1.266.031v-.313h-.203c-.735 0-.766-.109-.766-.468v-1.531c0-.985.422-1.86 1.172-1.86.078 0 .094 0 .11.016a.426.426 0 00-.22.375c0 .281.204.437.422.437.188 0 .438-.125.438-.437zm0 0"/></symbol><symbol overflow="visible" id="S"><path d="M2.453 0v-.313c-.656 0-.687-.046-.687-.437v-3.64l-1.391.109v.312c.64 0 .734.047.734.547V-.75c0 .438-.109.438-.78.438V0l1.093-.031c.344 0 .687.015 1.031.031zm-.547-6a.547.547 0 00-.531-.531A.536.536 0 00.844-6c0 .266.234.531.531.531A.536.536 0 001.906-6zm0 0"/></symbol><symbol overflow="visible" id="T"><path d="M3.578-1.266c0-.53-.297-.828-.422-.953-.328-.312-.719-.39-1.125-.469-.562-.109-1.219-.25-1.219-.828 0-.343.25-.75 1.11-.75 1.094 0 1.14.891 1.156 1.204.016.093.125.093.125.093.125 0 .125-.047.125-.234V-4.22c0-.156 0-.234-.11-.234-.046 0-.062 0-.202.125l-.157.156c-.39-.281-.796-.281-.937-.281-1.219 0-1.594.672-1.594 1.219 0 .359.156.625.422.843.328.266.594.329 1.313.47.218.03 1.03.187 1.03.905 0 .516-.343.907-1.109.907-.843 0-1.203-.563-1.39-1.407-.031-.14-.031-.171-.14-.171-.126 0-.126.062-.126.25v1.312c0 .172 0 .234.11.234C.483.11.5.094.688-.094.703-.109.703-.125.89-.312a1.51 1.51 0 001.093.421c1.141 0 1.594-.671 1.594-1.375zm0 0"/></symbol><symbol overflow="visible" id="U"><path d="M3.313 0v-.313h-.266c-.781 0-.813-.109-.813-.468v-5.235c0-.359.032-.468.813-.468h.265v-.297c-.343.031-1.14.031-1.515.031-.39 0-1.172 0-1.516-.031v.297h.25c.797 0 .813.109.813.468V-.78c0 .36-.016.469-.813.469h-.25V0c.344-.031 1.125-.031 1.5-.031.39 0 1.188 0 1.532.031zm0 0"/></symbol><symbol overflow="visible" id="V"><path d="M3.297-1.234v-.563h-.25v.547c0 .734-.297 1.11-.656 1.11-.672 0-.672-.907-.672-1.079v-2.75H3.14v-.312H1.719V-6.11h-.25c-.016.812-.313 1.875-1.282 1.921v.22h.844v2.734c0 1.218.922 1.343 1.282 1.343.703 0 .984-.703.984-1.343zm0 0"/></symbol><symbol overflow="visible" id="W"><path d="M4.797-.89v-.547h-.25v.546c0 .579-.25.641-.36.641-.328 0-.359-.453-.359-.5v-1.984c0-.422 0-.797-.36-1.172-.39-.39-.89-.547-1.359-.547-.812 0-1.5.469-1.5 1.125 0 .297.204.469.454.469a.435.435 0 00.453-.454c0-.124-.047-.453-.5-.468.265-.344.75-.453 1.078-.453.484 0 1.047.39 1.047 1.265v.375c-.5.031-1.204.063-1.829.36-.75.343-1 .859-1 1.296C.313-.14 1.282.11 1.907.11c.657 0 1.11-.39 1.297-.859.047.39.313.813.781.813.204 0 .813-.141.813-.954zm-1.656-.5c0 .937-.72 1.28-1.157 1.28-.5 0-.906-.343-.906-.843 0-.547.422-1.375 2.063-1.438zm0 0"/></symbol><symbol overflow="visible" id="X"><path d="M4.688-2.125c0-1.281-1-2.328-2.204-2.328C1.25-4.453.281-3.375.281-2.125.281-.844 1.312.109 2.47.109a2.22 2.22 0 002.219-2.234zm-.829-.078c0 .36 0 .89-.218 1.328a1.273 1.273 0 01-1.157.734c-.421 0-.859-.203-1.14-.671-.235-.438-.235-1.032-.235-1.391 0-.39 0-.922.235-1.36a1.308 1.308 0 011.125-.671c.437 0 .875.218 1.125.64.265.438.265 1.016.265 1.39zm0 0"/></symbol><symbol overflow="visible" id="Y"><path d="M5.313 0v-.313c-.516 0-.766 0-.766-.296V-2.5c0-.86 0-1.172-.313-1.531-.14-.157-.468-.36-1.046-.36-.72 0-1.188.422-1.47 1.047V-4.39l-1.405.11v.312c.703 0 .78.063.78.547V-.75c0 .438-.109.438-.78.438V0l1.125-.031L2.546 0v-.313c-.656 0-.766 0-.766-.437v-1.828c0-1.047.703-1.594 1.344-1.594.625 0 .734.531.734 1.094V-.75c0 .438-.109.438-.78.438V0l1.124-.031zm0 0"/></symbol><symbol overflow="visible" id="Z"><path d="M8.734 0v-.313H8.5c-.766 0-.781-.109-.781-.468v-5.235c0-.359.015-.468.781-.468h.234v-.297H7.063c-.266 0-.266 0-.329.187L4.547-1 2.39-6.563c-.079-.218-.11-.218-.344-.218H.375v.297h.234c.766 0 .782.109.782.468v4.97c0 .265 0 .734-1.016.734V0l1.156-.031L2.688 0v-.313c-1.016 0-1.016-.468-1.016-.734v-5.36L4.078-.218c.047.125.094.219.188.219.109 0 .14-.078.187-.188l2.438-6.296h.015v5.703c0 .36-.015.469-.781.469h-.234V0c.359-.031 1.03-.031 1.421-.031s1.063 0 1.422.031zm0 0"/></symbol><symbol overflow="visible" id="aa"><path d="M5.313 0v-.313c-.516 0-.766 0-.766-.296V-2.5c0-.86 0-1.172-.313-1.531-.14-.157-.468-.36-1.046-.36-.829 0-1.266.594-1.422.954H1.75v-3.454l-1.438.11v.297c.704 0 .782.078.782.562V-.75c0 .438-.11.438-.782.438V0l1.125-.031L2.548 0v-.313c-.656 0-.766 0-.766-.437v-1.828c0-1.047.703-1.594 1.344-1.594.625 0 .734.531.734 1.094V-.75c0 .438-.109.438-.78.438V0l1.124-.031zm0 0"/></symbol><symbol overflow="visible" id="ab"><path d="M7.281-.875c0-.063 0-.172-.14-.172-.11 0-.11.094-.11.156C6.97-.17 6.625 0 6.375 0c-.484 0-.578-.5-.703-1.438l-.14-.78c-.173-.641-.657-.97-1.204-1.157.953-.25 1.734-.844 1.734-1.625 0-.953-1.14-1.781-2.593-1.781H.344v.297h.25c.75 0 .781.109.781.468V-.78c0 .36-.031.469-.781.469h-.25V0c.36-.031 1.062-.031 1.453-.031.39 0 1.094 0 1.453.031v-.313h-.234c-.766 0-.797-.109-.797-.468v-2.516h1.156c.156 0 .563 0 .922.344.375.36.375.672.375 1.328s0 1.047.406 1.422c.406.36.953.422 1.25.422.781 0 .953-.813.953-1.094zM5.031-5c0 .688-.234 1.484-1.703 1.484h-1.11v-2.562c0-.234 0-.344.22-.375.109-.031.39-.031.593-.031.89 0 2 .046 2 1.484zm0 0"/></symbol><symbol overflow="visible" id="ac"><path d="M4.125-1.188c0-.093-.094-.093-.125-.093-.094 0-.11.031-.14.093C3.577-.265 2.937-.14 2.562-.14c-.532 0-1.407-.421-1.407-2.03 0-1.61.828-2.032 1.344-2.032.094 0 .719.016 1.063.375-.407.015-.47.312-.47.453 0 .25.188.453.47.453.25 0 .453-.172.453-.469 0-.671-.75-1.062-1.516-1.062-1.25 0-2.156 1.078-2.156 2.312 0 1.266.984 2.25 2.125 2.25a1.626 1.626 0 001.656-1.296zm0 0"/></symbol><symbol overflow="visible" id="ad"><path d="M5.234 0v-.313c-.687 0-.765-.062-.765-.546v-6.032l-1.438.11v.297c.703 0 .781.078.781.562v2.14a1.6 1.6 0 00-1.265-.609c-1.172 0-2.203.97-2.203 2.25 0 1.266.969 2.25 2.094 2.25.64 0 1.093-.343 1.343-.656V.11zM3.781-1.172c0 .172 0 .203-.11.36-.296.484-.75.703-1.171.703-.453 0-.813-.266-1.047-.641-.266-.406-.297-.969-.297-1.375 0-.375.032-.969.313-1.406.203-.313.593-.64 1.125-.64.344 0 .765.14 1.078.593.11.172.11.187.11.375zm0 0"/></symbol><symbol overflow="visible" id="ae"><path d="M6.61-2.313c0-.109 0-.171-.126-.171-.109 0-.109.062-.125.156C6.281-.906 5.22-.094 4.141-.094c-.61 0-2.563-.328-2.563-3.297 0-2.968 1.938-3.312 2.547-3.312 1.078 0 1.969.906 2.172 2.36.016.14.016.171.156.171.156 0 .156-.031.156-.234v-2.36c0-.171 0-.234-.109-.234-.047 0-.078 0-.156.11l-.5.734C5.469-6.516 4.969-7 4.016-7 2.156-7 .562-5.422.562-3.406c0 2.062 1.61 3.625 3.454 3.625 1.625 0 2.593-1.375 2.593-2.531zm0 0"/></symbol><symbol overflow="visible" id="af"><path d="M8.078 0v-.313c-.515 0-.765 0-.781-.296V-2.5c0-.86 0-1.172-.297-1.531-.14-.157-.469-.36-1.047-.36-.828 0-1.266.594-1.437.97-.141-.86-.875-.97-1.329-.97-.718 0-1.187.422-1.468 1.047V-4.39l-1.407.11v.312c.704 0 .782.063.782.547V-.75c0 .438-.11.438-.782.438V0l1.125-.031L2.548 0v-.313c-.656 0-.766 0-.766-.437v-1.828c0-1.047.703-1.594 1.344-1.594.625 0 .734.531.734 1.094V-.75c0 .438-.109.438-.78.438V0l1.124-.031L5.313 0v-.313c-.657 0-.766 0-.766-.437v-1.828c0-1.047.703-1.594 1.344-1.594.625 0 .734.531.734 1.094V-.75c0 .438-.11.438-.781.438V0l1.125-.031zm0 0"/></symbol><symbol overflow="visible" id="ag"><path d="M5.172-2.14c0-1.266-.953-2.25-2.078-2.25-.766 0-1.188.437-1.39.656v-.657L.28-4.28v.312c.703 0 .766.047.766.485v4.656c0 .453-.11.453-.766.453v.297l1.11-.031 1.125.03v-.296c-.672 0-.782 0-.782-.453V-.594c.047.172.47.703 1.235.703 1.172 0 2.203-.968 2.203-2.25zm-.813 0c0 1.203-.703 2.03-1.437 2.03-.39 0-.781-.203-1.047-.609-.14-.203-.14-.219-.14-.422v-2.203c.296-.515.78-.797 1.28-.797.735 0 1.344.875 1.344 2zm0 0"/></symbol><symbol overflow="visible" id="ah"><path d="M6.203-4.938c0-.968-.984-1.843-2.344-1.843H.344v.297h.25c.75 0 .781.109.781.468V-.78c0 .36-.031.469-.781.469h-.25V0c.36-.031 1.094-.031 1.469-.031s1.125 0 1.468.031v-.313h-.234c-.766 0-.797-.109-.797-.468v-2.36h1.688c1.187 0 2.265-.796 2.265-1.796zm-1.031 0c0 .47 0 1.532-1.578 1.532H2.219v-2.672c0-.328.031-.406.5-.406h.875c1.578 0 1.578 1.062 1.578 1.546zm0 0"/></symbol><symbol overflow="visible" id="ai"><path d="M2.531 0v-.313c-.656 0-.765 0-.765-.437v-6.14l-1.438.109v.297c.703 0 .781.078.781.562V-.75c0 .438-.109.438-.78.438V0l1.109-.031zm0 0"/></symbol></defs><path d="M255.793 20.27H105.195a3.971 3.971 0 00-3.972 3.972v143.559a3.974 3.974 0 003.972 3.972h150.598a3.977 3.977 0 003.977-3.972V24.242a3.974 3.974 0 00-3.977-3.972zm0 0" fill="#fffef2" stroke-width=".7948720100000001" stroke="gray" stroke-miterlimit="10"/><use xlink:href="#a" x="219.137" y="28.811"/><use xlink:href="#b" x="223.358" y="28.811"/><use xlink:href="#c" x="228.286" y="28.811"/><use xlink:href="#d" x="232.038" y="28.811"/><use xlink:href="#e" x="236.727" y="28.811"/><use xlink:href="#f" x="242.474" y="28.811"/><use xlink:href="#g" x="250.209" y="28.811"/><use xlink:href="#h" x="232.213" y="38.251"/><use xlink:href="#i" x="236.434" y="38.251"/><use xlink:href="#a" x="239.724" y="38.251"/><use xlink:href="#j" x="243.945" y="38.251"/><use xlink:href="#b" x="248.635" y="38.251"/><use xlink:href="#k" x="253.325" y="38.251"/><g fill="navy"><use xlink:href="#a" x="222.744" y="202.662"/><use xlink:href="#b" x="226.965" y="202.662"/></g><g fill="navy"><use xlink:href="#c" x="231.893" y="202.662"/><use xlink:href="#d" x="235.645" y="202.662"/><use xlink:href="#e" x="240.335" y="202.662"/><use xlink:href="#f" x="246.082" y="202.662"/><use xlink:href="#g" x="253.816" y="202.662"/></g><g fill="navy"><use xlink:href="#l" x="222.744" y="212.102"/><use xlink:href="#m" x="227.434" y="212.102"/><use xlink:href="#n" x="231.655" y="212.102"/><use xlink:href="#m" x="234.938" y="212.102"/><use xlink:href="#k" x="239.158" y="212.102"/><use xlink:href="#c" x="242.489" y="212.102"/><use xlink:href="#n" x="246.241" y="212.102"/><use xlink:href="#k" x="249.524" y="212.102"/></g><path d="M126.965 37.824v27.817" fill="none" stroke-width=".39793467000000005" stroke="#000" stroke-miterlimit="10"/><path d="M128.555 64.445c-.594.102-1.489 1.196-1.59 1.492-.098-.296-.992-1.39-1.59-1.492" fill="none" stroke-width=".31814827" stroke-linecap="round" stroke-linejoin="round" stroke="#000" stroke-miterlimit="10"/><use xlink:href="#o" x="129.073" y="53.451"/><use xlink:href="#p" x="130.73" y="53.451"/><use xlink:href="#q" x="133.711" y="53.451"/><use xlink:href="#r" x="136.361" y="53.451"/><use xlink:href="#q" x="139.341" y="53.451"/><use xlink:href="#s" x="141.991" y="53.451"/><use xlink:href="#q" x="144.972" y="53.451"/><use xlink:href="#t" x="147.621" y="53.451"/><use xlink:href="#q" x="150.603" y="53.451"/><use xlink:href="#u" x="154.243" y="53.451"/><use xlink:href="#v" x="158.238" y="53.451"/><path d="M126.965 80.012v73.004" fill="none" stroke-width=".39793467000000005" stroke="#000" stroke-miterlimit="10"/><path d="M128.555 151.824c-.594.098-1.489 1.192-1.59 1.489-.098-.297-.992-1.391-1.59-1.489" fill="none" stroke-width=".31814827" stroke-linecap="round" stroke-linejoin="round" stroke="#000" stroke-miterlimit="10"/><use xlink:href="#o" x="101.695" y="136.074"/><use xlink:href="#w" x="104.311" y="134.567"/><use xlink:href="#x" x="103.352" y="136.074"/><use xlink:href="#q" x="108.172" y="136.074"/><use xlink:href="#w" x="111.744" y="134.567"/><use xlink:href="#y" x="110.823" y="136.074"/><use xlink:href="#q" x="115.564" y="136.074"/><use xlink:href="#u" x="119.209" y="136.074"/><use xlink:href="#v" x="123.203" y="136.074"/><path d="M126.965 167.496c0 21.582 46.722 7.656 46.722 28.781" fill="none" stroke-width=".39793467000000005" stroke="#000" stroke-miterlimit="10"/><path d="M175.277 195.082c-.593.102-1.488 1.195-1.59 1.492-.097-.297-.992-1.39-1.59-1.492" fill="none" stroke-width=".31814827" stroke-linecap="round" stroke-linejoin="round" stroke="#000" stroke-miterlimit="10"/><use xlink:href="#o" x="142.789" y="188.691"/><use xlink:href="#z" x="144.447" y="188.691"/><use xlink:href="#A" x="147.594" y="188.691"/><use xlink:href="#B" x="149.252" y="188.691"/><use xlink:href="#A" x="151.904" y="188.691"/><use xlink:href="#C" x="153.562" y="188.691"/><use xlink:href="#v" x="156.209" y="188.691"/><path d="M126.965 80.012c0 31.781 76.11-3.512 76.11 27.816" fill="none" stroke-width=".39793467000000005" stroke="#000" stroke-miterlimit="10"/><path d="M204.664 106.633c-.598.101-1.492 1.195-1.59 1.492-.101-.297-.992-1.39-1.59-1.492" fill="none" stroke-width=".31814827" stroke-linecap="round" stroke-linejoin="round" stroke="#000" stroke-miterlimit="10"/><use xlink:href="#o" x="141.123" y="90.551"/><use xlink:href="#D" x="142.78" y="90.551"/><use xlink:href="#E" x="145.427" y="90.551"/><use xlink:href="#D" x="147.084" y="90.551"/><use xlink:href="#F" x="149.731" y="90.551"/><use xlink:href="#G" x="152.378" y="90.551"/><use xlink:href="#H" x="154.697" y="90.551"/><use xlink:href="#I" x="157.034" y="90.551"/><use xlink:href="#J" x="160.015" y="90.551"/><use xlink:href="#K" x="163.33" y="90.551"/><use xlink:href="#A" x="165.679" y="90.551"/><use xlink:href="#L" x="169.321" y="90.551"/><use xlink:href="#I" x="170.978" y="90.551"/><use xlink:href="#J" x="173.959" y="90.551"/><use xlink:href="#K" x="177.274" y="90.551"/><use xlink:href="#A" x="179.623" y="90.551"/><use xlink:href="#u" x="183.265" y="90.551"/><use xlink:href="#v" x="187.26" y="90.551"/><path d="M203.074 124.238c0 12.938 17.336 15.332 17.336 27.813" fill="none" stroke-width=".39793467000000005" stroke="#000" stroke-miterlimit="10"/><path d="M222 150.86c-.594.097-1.488 1.19-1.59 1.488-.098-.297-.992-1.391-1.59-1.489" fill="none" stroke-width=".31814827" stroke-linecap="round" stroke-linejoin="round" stroke="#000" stroke-miterlimit="10"/><use xlink:href="#o" x="144.993" y="139.861"/><use xlink:href="#M" x="146.651" y="139.861"/><use xlink:href="#I" x="150.132" y="139.861"/><use xlink:href="#K" x="153.113" y="139.861"/><use xlink:href="#L" x="155.462" y="139.861"/><use xlink:href="#G" x="157.119" y="139.861"/><use xlink:href="#L" x="159.438" y="139.861"/><use xlink:href="#I" x="161.096" y="139.861"/><use xlink:href="#J" x="164.076" y="139.861"/><use xlink:href="#A" x="167.391" y="139.861"/><use xlink:href="#N" x="171.034" y="139.861"/><use xlink:href="#I" x="176" y="139.861"/><use xlink:href="#N" x="178.98" y="139.861"/><use xlink:href="#D" x="183.946" y="139.861"/><use xlink:href="#J" x="186.593" y="139.861"/><g><use xlink:href="#G" x="189.741" y="139.861"/><use xlink:href="#O" x="192.06" y="139.861"/><use xlink:href="#N" x="195.375" y="139.861"/><use xlink:href="#A" x="200.341" y="139.861"/></g><g><use xlink:href="#u" x="203.983" y="139.861"/><use xlink:href="#v" x="207.978" y="139.861"/></g><path d="M220.41 168.46c0 21.384-46.723 6.892-46.723 27.817" fill="none" stroke-width=".39793467000000005" stroke="#000" stroke-miterlimit="10"/><path d="M175.277 195.082c-.593.102-1.488 1.195-1.59 1.492-.097-.297-.992-1.39-1.59-1.492" fill="none" stroke-width=".31814827" stroke-linecap="round" stroke-linejoin="round" stroke="#000" stroke-miterlimit="10"/><g><use xlink:href="#o" x="189.511" y="189.173"/><use xlink:href="#z" x="191.168" y="189.173"/><use xlink:href="#A" x="194.316" y="189.173"/><use xlink:href="#B" x="195.973" y="189.173"/></g><g><use xlink:href="#A" x="198.626" y="189.173"/><use xlink:href="#C" x="200.284" y="189.173"/><use xlink:href="#v" x="202.931" y="189.173"/></g><path d="M138.766 23.781h-23.598a3.971 3.971 0 00-3.973 3.973v5.898a3.971 3.971 0 003.973 3.973h23.598a3.974 3.974 0 003.972-3.973v-5.898a3.974 3.974 0 00-3.972-3.973zm0 0" fill="#fffbb3" stroke-width=".39793467000000005" stroke="#000" stroke-miterlimit="10"/><g><use xlink:href="#P" x="114.507" y="34.096"/><use xlink:href="#Q" x="120.031" y="34.096"/><use xlink:href="#R" x="124.443" y="34.096"/><use xlink:href="#S" x="128.338" y="34.096"/><use xlink:href="#Q" x="131.1" y="34.096"/><use xlink:href="#T" x="135.512" y="34.096"/></g><path d="M145.227 66.293h-36.52a3.978 3.978 0 00-3.977 3.977v5.57a3.974 3.974 0 003.977 3.972h36.52a3.974 3.974 0 003.976-3.972v-5.57a3.978 3.978 0 00-3.976-3.977zm0 0" fill="#fffbb3" stroke-width=".39793467000000005" stroke="#000" stroke-miterlimit="10"/><g><use xlink:href="#U" x="108.043" y="76.392"/><use xlink:href="#V" x="111.63" y="76.392"/><use xlink:href="#Q" x="115.495" y="76.392"/><use xlink:href="#R" x="119.907" y="76.392"/><use xlink:href="#W" x="123.802" y="76.392"/><use xlink:href="#V" x="128.77" y="76.392"/><use xlink:href="#S" x="132.635" y="76.392"/><use xlink:href="#X" x="135.397" y="76.392"/><use xlink:href="#Y" x="140.365" y="76.392"/></g><path d="M137.785 153.668h-21.637a3.978 3.978 0 00-3.976 3.977v5.68a3.974 3.974 0 003.976 3.972h21.637a3.971 3.971 0 003.973-3.973v-5.68a3.974 3.974 0 00-3.973-3.976zm0 0" fill="#fffbb3" stroke-width=".39793467000000005" stroke="#000" stroke-miterlimit="10"/><g><use xlink:href="#Z" x="115.485" y="163.877"/><use xlink:href="#Q" x="124.597" y="163.877"/><use xlink:href="#T" x="129.008" y="163.877"/><use xlink:href="#aa" x="132.923" y="163.877"/></g><path d="M215.062 196.93h-82.746a3.974 3.974 0 00-3.972 3.972v7.61a3.971 3.971 0 003.972 3.972h82.746a3.974 3.974 0 003.973-3.972v-7.61a3.976 3.976 0 00-3.973-3.972zm0 0" fill="#ccf" stroke-width=".39793467000000005" stroke="#000" stroke-miterlimit="10"/><g><use xlink:href="#ab" x="131.654" y="207.246"/><use xlink:href="#Q" x="138.967" y="207.246"/><use xlink:href="#ac" x="143.379" y="207.246"/><use xlink:href="#X" x="147.79" y="207.246"/><use xlink:href="#R" x="152.758" y="207.246"/><use xlink:href="#ad" x="156.653" y="207.246"/></g><g><use xlink:href="#ae" x="165.486" y="207.246"/><use xlink:href="#X" x="172.66" y="207.246"/><use xlink:href="#af" x="177.628" y="207.246"/><use xlink:href="#ag" x="185.905" y="207.246"/></g><g><use xlink:href="#X" x="191.707" y="207.246"/><use xlink:href="#Y" x="196.675" y="207.246"/><use xlink:href="#Q" x="202.2" y="207.246"/><use xlink:href="#Y" x="206.611" y="207.246"/></g><g><use xlink:href="#V" x="211.858" y="207.246"/></g><path d="M236.465 108.48H169.68a3.978 3.978 0 00-3.977 3.977v7.605a3.978 3.978 0 003.977 3.977h66.785a3.978 3.978 0 003.976-3.977v-7.605a3.978 3.978 0 00-3.976-3.977zm0 0" fill="#fffbb3" stroke-width=".39793467000000005" stroke="#000" stroke-miterlimit="10"/><g><use xlink:href="#ah" x="169.017" y="118.798"/></g><g><use xlink:href="#W" x="175.505" y="118.798"/><use xlink:href="#R" x="180.473" y="118.798"/><use xlink:href="#V" x="184.368" y="118.798"/><use xlink:href="#S" x="188.233" y="118.798"/><use xlink:href="#ac" x="190.995" y="118.798"/><use xlink:href="#ai" x="195.407" y="118.798"/><use xlink:href="#Q" x="198.169" y="118.798"/></g><g><use xlink:href="#P" x="205.89" y="118.798"/><use xlink:href="#ag" x="211.414" y="118.798"/></g><g><use xlink:href="#Q" x="217.217" y="118.798"/><use xlink:href="#ac" x="221.628" y="118.798"/><use xlink:href="#S" x="226.04" y="118.798"/><use xlink:href="#Q" x="228.802" y="118.798"/><use xlink:href="#T" x="233.214" y="118.798"/></g><path d="M252.285 152.707H188.54a3.974 3.974 0 00-3.976 3.973v7.605a3.978 3.978 0 003.976 3.977h63.746a3.974 3.974 0 003.973-3.977v-7.605a3.971 3.971 0 00-3.973-3.973zm0 0" fill="#fffbb3" stroke-width=".39793467000000005" stroke="#000" stroke-miterlimit="10"/><g><use xlink:href="#P" x="187.874" y="163.022"/><use xlink:href="#ag" x="193.399" y="163.022"/></g><g><use xlink:href="#Q" x="199.202" y="163.022"/><use xlink:href="#ac" x="203.613" y="163.022"/><use xlink:href="#S" x="208.025" y="163.022"/><use xlink:href="#Q" x="210.787" y="163.022"/><use xlink:href="#T" x="215.199" y="163.022"/></g><g><use xlink:href="#ab" x="222.422" y="163.022"/><use xlink:href="#Q" x="229.735" y="163.022"/><use xlink:href="#ac" x="234.147" y="163.022"/><use xlink:href="#X" x="238.558" y="163.022"/><use xlink:href="#R" x="243.526" y="163.022"/><use xlink:href="#ad" x="247.421" y="163.022"/></g><g fill="#060"><use xlink:href="#a" x="45.66" y="93.975"/><use xlink:href="#b" x="49.881" y="93.975"/></g><g fill="#060"><use xlink:href="#c" x="54.809" y="93.975"/><use xlink:href="#d" x="58.561" y="93.975"/><use xlink:href="#e" x="63.251" y="93.975"/><use xlink:href="#f" x="68.998" y="93.975"/><use xlink:href="#g" x="76.732" y="93.975"/></g><g fill="#060"><use xlink:href="#m" x="47.012" y="103.415"/><use xlink:href="#n" x="51.233" y="103.415"/><use xlink:href="#n" x="54.515" y="103.415"/><use xlink:href="#i" x="57.798" y="103.415"/><use xlink:href="#aj" x="61.089" y="103.415"/><use xlink:href="#ak" x="63.434" y="103.415"/><use xlink:href="#j" x="68.124" y="103.415"/><use xlink:href="#n" x="72.814" y="103.415"/><use xlink:href="#c" x="76.096" y="103.415"/><use xlink:href="#k" x="79.848" y="103.415"/></g><path d="M82.45 96.02c10.64 0 11.44-16.008 22.081-16.008" fill="none" stroke-width=".39793467000000005" stroke="#004c00" stroke-dasharray=".3985,1.99255" stroke-miterlimit="10"/><path d="M107.512 80.012a2.98 2.98 0 10-5.96-.001 2.98 2.98 0 005.96 0zm0 0" fill="#0f0" stroke-width=".39793467000000005" stroke="#004c00" stroke-miterlimit="10"/><path d="M82.45 96.02c25.355 0 3.187-58.196 28.546-58.196" fill="none" stroke-width=".39793467000000005" stroke="#004c00" stroke-dasharray=".3985,1.99255" stroke-miterlimit="10"/><path d="M113.977 37.824a2.982 2.982 0 00-2.98-2.98 2.98 2.98 0 102.98 2.98zm0 0" fill="#0f0" stroke-width=".39793467000000005" stroke="#004c00" stroke-miterlimit="10"/><path d="M82.45 96.02c34.253 0 48.8 28.218 83.058 28.218" fill="none" stroke-width=".39793467000000005" stroke="#004c00" stroke-dasharray=".3985,1.99255" stroke-miterlimit="10"/><path d="M168.488 124.238a2.98 2.98 0 10-5.96 0 2.98 2.98 0 005.96 0zm0 0" fill="#0f0" stroke-width=".39793467000000005" stroke="#004c00" stroke-miterlimit="10"/><path d="M82.45 96.02c30.222 0-.7 71.476 29.527 71.476" fill="none" stroke-width=".39793467000000005" stroke="#004c00" stroke-dasharray=".3985,1.99255" stroke-miterlimit="10"/><path d="M114.957 167.496a2.982 2.982 0 10-5.965.004 2.982 2.982 0 005.965-.004zm0 0" fill="#0f0" stroke-width=".39793467000000005" stroke="#004c00" stroke-miterlimit="10"/><path d="M82.45 96.02c48.87 0 53.042 72.44 101.913 72.44" fill="none" stroke-width=".39793467000000005" stroke="#004c00" stroke-dasharray=".3985,1.99255" stroke-miterlimit="10"/><path d="M187.344 168.46a2.98 2.98 0 10-5.96 0 2.98 2.98 0 005.96 0zm0 0" fill="#0f0" stroke-width=".39793467000000005" stroke="#004c00" stroke-miterlimit="10"/><path d="M82.45 96.02c48.921 0-3.227 116.667 45.695 116.667" fill="none" stroke-width=".39793467000000005" stroke="#004c00" stroke-dasharray=".3985,1.99255" stroke-miterlimit="10"/><path d="M131.125 212.687a2.98 2.98 0 10-5.96 0 2.98 2.98 0 005.96 0zm0 0" fill="#0f0" stroke-width=".39793467000000005" stroke="#004c00" stroke-miterlimit="10"/></svg>
